<svg enable-background="new 0 0 226 49.9" viewBox="0 0 226 49.9" xmlns="http://www.w3.org/2000/svg"><path d="m18.8.1c10.1 0 18.3 8.2 18.3 18.3s-8.2 18.3-18.3 18.3-18.3-8.2-18.3-18.3 8.2-18.3 18.3-18.3" fill="#e4bc00"/><path d="m18.8.1c10.1 0 18.3 8.2 18.3 18.3s-8.2 18.3-18.3 18.3-18.3-8.2-18.3-18.3 8.2-18.3 18.3-18.3z" fill="none" stroke="#690000" stroke-miterlimit="3.864" stroke-width=".026954"/><path d="m27 18.8c2.5 1.8 4.1 4.5 4.1 7.4 0 5.5-5.5 10-12.3 10s-12.3-4.5-12.3-10c0-2.9 1.6-5.6 4.1-7.4-1-1.3-1.6-2.8-1.6-4.5 0-3.3 2.4-6.2 5.8-7.5v-2.7h7.9v2.7c3.3 1.3 5.7 4.2 5.7 7.5 0 1.6-.4 3.2-1.4 4.5" fill="#e60012"/><path d="m27 18.8c2.5 1.8 4.1 4.5 4.1 7.4 0 5.5-5.5 10-12.3 10s-12.3-4.5-12.3-10c0-2.9 1.6-5.6 4.1-7.4-1-1.3-1.6-2.8-1.6-4.5 0-3.3 2.4-6.2 5.8-7.5v-2.7h7.9v2.7c3.3 1.3 5.7 4.2 5.7 7.5 0 1.6-.4 3.2-1.4 4.5z" fill="none" stroke="#fff" stroke-miterlimit="3.864" stroke-width=".026954"/><g fill="#fff"><path d="m17.1 17.5h3.3v2.1h-3.3z"/><path d="m20.5 21.3 1.5-1.4 2.9 3.1-1.5-.1-.2 1.2z"/><path d="m21.4 17.8h4v1.5h-4z"/><path d="m17 21.3-1.5-1.4-2.9 3.1 1.4-.1.3 1.2z"/><path d="m12.1 17.8h4v1.5h-4z"/></g><path d="m56.4 27.4c5.4 0 9.8-4.7 9.8-10.4s-4.4-10.4-9.8-10.4-9.8 4.7-9.8 10.4c0 5.8 4.4 10.4 9.8 10.4m-.1-19.3c2.6 0 4.8 2.9 5.3 6.8l-10.6-.2c.5-3.8 2.7-6.6 5.3-6.6m5.5 9.3c-.2 4.6-2.6 8.3-5.5 8.3s-5.3-3.7-5.5-8.4zm22.6-11.1h-12s-4.4-.1-4.4 3v10.9s-.2 6.4-7.6 9.3c0 0-8.3 3-13.1-2.8v3.1s5.4 2.5 13.6.2 10.8-7.4 10.8-9.3h12.8v10.3h4.1v-21.5s.2-3.2-4.2-3.2m-10.7 2.1h9.4c1.5 0 1.3 1.4 1.3 1.4v2.4h-12.3v-2.5c-.1-1.4 1.6-1.3 1.6-1.3m10.8 9.7h-12.6v-3.8h12.6z" fill="#231009"/><path d="m109.5 11s-8.5-1-13.2-5.6v4.3s5 3 13.2 1.3m15.2 1.4c-3 .1-4.4-3-6.3-3.4 0 0-3.1-1.4-7.8 2.8l3.4 1.3s2.3-3.5 4.6-2.7c2.3.7 4.6 4 9.5 1.9 4-1.7 5.6-3.8 5.6-3.8s1-2.2-2.1-2.2l-21.2-.1v2h18.6c0 .1-.9 4.1-4.3 4.2m-15.1 1.1s-8.6.8-13.4-2.7v3.8s5.3 1.8 13.4-1.1m2.9 15.6c-1.1-.1-1.6-.7-1.6-.7 2.2-.4 3.8-3.2 3.8-3.2h5.5v2.8h4.4v-2.6h5.2v2.7h4.2v-11.2c-.2-3.3-4.4-3.2-4.4-3.2h-14.6c-4.8-.2-4.3 3.7-4.3 3.7v6.6c0 1.6-1.3 3.6-1.3 3.6l-1.5-1.9c.9-2.1.9-3.9.9-3.9v-5.3h-12.6v2.2l8.6.2v5.1c.2 3-2.3 6.5-5.1 6.4s-3.9-3.5-3.9-3.5v3.4c6.7 1.6 9.9-.7 11.4-3.4 2.8 5.3 7.5 4.5 7.5 4.5h19.7v-2.2h-21.9zm12.1-13.1h3.6s1.5-.2 1.5 1v1.4h-5.1zm-.1 4.7h5.1v2.3h-5.1zm-9.4-3.6s0-1.2 1.6-1.2h3.2v2.7h-4.9v-1.5zm-.2 3.6h5.1v2.3h-5.1z" fill="#231009"/><path d="m151.2 27.6c-.1 0-.3.1-.3.1-3.2.8-6.1 1.4-8.6 1.6l-1.3-2.3c4.7-.5 9.2-1.4 13.6-2.8h-13.3v-1.9h18v-.9c-.6-.1-1.2-.1-1.8-.2l-.3-2.4c2.2.3 3.6.4 4.3.1.6-.3.9-.6.9-1v-.3c0-.1-.1-.2-.3-.2h-6.1v4h-3.2v-4h-6c-.2 0-.3.1-.3.2v3.4h-3.2v-5c0-.3.2-.5.7-.5h8.8v-1.4h-10.4v-2.1h10.4v-1.6h-7.3c-.9.5-1.8 1-2.9 1.5-.5-.8-1.1-1.4-1.7-1.8 2-.8 3.8-2 5.2-3.6l2.8 1.3c-.2.2-.5.5-.8.7h4.7v-1.8h3.2v1.8h9.3v1.9h-9.3v1.6h10v1.9h-10v1.4h8.9c.5 0 .8.2.8.5v2.8c0 .9-.5 1.5-1.5 2-.5.2-1 .4-1.6.5v1h17.5v1.9h-16.3c.8 1 1.9 2 3.2 2.7 3.2-.9 5.8-1.8 7.6-2.6l1.6 1.9c-1.7.7-3.8 1.5-6.1 2.2h.2c2.6 1 5.9 1.7 10.1 2.1l-1.3 2.2c-.3-.1-.6-.1-.8-.1-8.6-1-14.6-3.8-18.1-8.2-2 .8-3.9 1.5-5.5 2.1v3.3c3.3-.3 6.2-.7 8.6-1.2l.7 2.2c-4.7.9-10.3 1.5-17.1 1.9l-.5-2.3c1.7-.1 3.3-.2 4.8-.3zm20.2-10.6h-3.2v-9.2h3.2zm7.1-10.2v11.9c0 1-.6 1.8-1.8 2.3s-3.5.5-6.8-.2v-2.3c1.1.2 2 .4 2.4.5 1.3.2 2.2.1 2.5-.1.3-.1.4-.4.4-.7v-11.4z" fill="#231009"/><path d="m200.6 10v1.1h-3.4v-1.1h-10.3v-2.1h10.3v-1.3h3.4v1.3h11.8v-1.3h3.4v1.3h9.9v2.1h-9.9v1h-3.4v-1zm7.2 22.4h-3.4v-4.6c-5.7 2.5-11 4-16.1 4.5l-1.3-2.3c5.6-.7 10.4-1.9 14.5-3.5h-14.1v-2.2h17v-1.9h-3.9c-.3 0-.4-.1-.4-.3v-9.2c0-.2.1-.3.4-.3h3.1c.8-.8 1.4-1.4 1.7-2l2.6.9c-.2.3-.5.7-.8 1.1h5c.3 0 .5.1.5.3v9.2c0 .2-.2.3-.5.3h-4.2v1.9h17.5v2.2h-15.2c.1 0 .2.1.4.1 4.4 1.7 9.5 2.8 15.4 3.3l-1.6 2.2c-6-.8-11.5-2.2-16.6-4.1zm-20.1-9.4c-.1-.6-.3-1.3-.7-2.1l1.8-.1c.9-.6 1.9-1.3 3-2.1-1.6-1-3.2-1.8-4.7-2.4.5-.6 1-1.2 1.4-1.7.2 0 .6.2 1.1.5 1.3-1.2 2.5-2.5 3.7-3.9.8.4 1.6.7 2.4 1.1-.9 1-2.2 2.3-4 3.8.6.3 1.2.6 1.8 1 1.1-1.1 1.9-2.1 2.5-3.2l2.7.7c-.8 1.5-2.9 3.5-6.1 5.8l3.2-.2c-.2-.4-.4-.8-.6-1l2.6-.6c.8 1.1 1.4 2.5 1.9 4.1l-2.7.5c-.1-.3-.2-.6-.3-.8zm21.9-6.4v-1.9c0-.1-.1-.1-.2-.1h-6.3c-.1 0-.1 0-.1.1v1.9zm-6.6 1.9v1.9c0 .1 0 .1.1.1h6.3c.1 0 .2 0 .2-.1v-1.9zm10.5 4.6c-.2-.6-.5-1.3-.9-2.1l1.8-.2c.9-.6 2-1.3 3.1-2.2-1.5-1.2-3.1-2.2-4.8-2.9.6-.5 1.1-1.1 1.6-1.6.2 0 .5.2 1.1.6.9-1 1.8-2.2 2.6-3.4.9.3 1.7.6 2.5 1-.6.9-1.6 2.2-3 3.7.5.3 1.1.7 1.7 1.1 1-1 1.8-2.1 2.4-3.1l2.7.7c-.8 1.5-2.8 3.4-5.8 5.7l3-.3c-.3-.4-.5-.7-.7-1l2.6-.7c.9 1.1 1.7 2.4 2.4 4l-2.6.6c-.2-.3-.3-.6-.5-.9z" fill="#231009"/><g enable-background="new"><path d="m57 38.4v3.6.6 3.6l1.2.1v.4h-4v-.4l1.1-.1c0-1.2 0-2.4 0-3.4v-3.8l-2.9 7.7h-.6l-3-7.7c0 1.2.1 2.8.1 3.3v3.8l1.3.1v.4h-3.2v-.4l1.3-.1v-7.7l-1.3-.2v-.4h3l2.7 6.8 2.6-6.8h2.9v.4z"/><path d="m62.4 46.4v.4h-3.3v-.4l.9-.1c0-.7 0-1.7 0-2.3v-.9c0-.8 0-1.2 0-1.8l-1-.1v-.3l2.4-.7.2.1v1.9 1.8 2.4zm-2.6-8.5c0-.5.4-.9.9-.9s.9.4.9.9-.4.9-.9.9-.9-.4-.9-.9z"/><path d="m70.7 46.4v.4h-3.3v-.4l.8-.1c0-.7 0-1.7 0-2.3v-1.5c0-1-.3-1.4-.9-1.4-.4 0-1 .2-1.6.8v2.2 2.4l.8.1v.4h-3.3v-.4l.9-.1c0-.7 0-1.7 0-2.3v-.9c0-.8 0-1.2 0-1.8l-.9-.1v-.3l2.3-.7.2.1.1 1.1c.8-.9 1.5-1.2 2.3-1.2 1.1 0 1.8.7 1.8 2.3v1.5 2.4z"/><path d="m79 38.4v3.7.6 3.6l1.3.1v.4h-4.3v-.4l1.3-.1c0-1.2 0-2.4 0-3.6v-.7c0-1.2 0-2.4 0-3.7h-1.9l-.5 2h-.7l.1-2.5h7.7l.1 2.5h-.7l-.5-2h-1.9z"/><path d="m81.9 43.5c0-2.1 1.5-3.4 3.2-3.4s3.2 1.2 3.2 3.4-1.4 3.4-3.2 3.4c-1.9 0-3.2-1.2-3.2-3.4zm4.7 0c0-2-.6-3-1.5-3-1 0-1.5 1-1.5 3s.6 3 1.5 3c1 0 1.5-1 1.5-3z"/><path d="m96.7 46.4v.4h-3.3v-.4l.8-.1c0-.7 0-1.7 0-2.3v-1.5c0-1-.3-1.4-.9-1.4-.4 0-1 .2-1.6.8v2.2 2.4l.8.1v.4h-3.3v-.4l.9-.1c0-.7 0-1.7 0-2.3v-.9c0-.8 0-1.2 0-1.8l-.9-.1v-.3l2.3-.7.2.1.1 1.1c.8-.9 1.5-1.2 2.3-1.2 1.1 0 1.8.7 1.8 2.3v1.5 2.4z"/><path d="m103.9 41.1-1.4-.1c.3.3.4.8.4 1.3 0 1.3-.9 2.2-2.6 2.2-.5 0-.9-.1-1.3-.2-.2.3-.3.5-.3.8 0 .4.2.7.9.7h1.8c1.7 0 2.4.7 2.4 1.8 0 1.3-1.2 2.4-3.6 2.4-2.1 0-2.8-.7-2.8-1.6 0-.6.4-1 1.2-1.4-.5-.2-.9-.5-.9-1.1s.3-1 1-1.6c-.7-.4-1-1-1-1.9 0-1.3.9-2.2 2.6-2.2.8 0 1.4.2 1.9.6l1.5-.6.2.1zm-3.9 6c-.6 0-.9 0-1.2-.1-.3.3-.4.6-.4 1 0 .9.7 1.4 1.8 1.4 1.5 0 2.3-.6 2.3-1.3 0-.6-.3-1-1.2-1zm1.5-4.8c0-1.1-.4-1.8-1.2-1.8-.7 0-1.2.7-1.2 1.8s.4 1.8 1.2 1.8c.7 0 1.2-.7 1.2-1.8z"/><path d="m110.5 43.2v3l1.3.1v.4h-4.1v-.4l1.1-.1c0-1.2 0-2.4 0-3.6v-.6c0-1.2 0-2.4 0-3.6l-1.1-.1v-.4h3.6c2.5 0 3.6 1 3.6 2.6 0 1.5-1 2.7-3.8 2.7zm0-4.9v3.7.7h.6c1.5 0 2.2-.9 2.2-2.2 0-1.4-.7-2.2-2.1-2.2z"/><path d="m122.9 46.4v.4h-3.3v-.4l.9-.1c0-.7 0-1.7 0-2.3v-1.5c0-1-.3-1.4-1-1.4-.5 0-1 .2-1.6.8v2.2 2.4l.8.1v.4h-3.3v-.4l.9-.1c0-.7 0-1.7 0-2.3v-6.1l-1-.1v-.3l2.4-.5.3-.2v1.9 2.4c.7-.8 1.4-1.2 2.3-1.2 1.1 0 1.8.7 1.8 2.4v1.4 2.4z"/><path d="m130.2 46.1c-.3.6-.7.8-1.4.8s-1.2-.4-1.3-1.1c-.7.7-1.1 1.1-2 1.1-1 0-1.7-.6-1.7-1.6s.6-1.6 2.4-2.2c.4-.1.8-.3 1.3-.4v-.6c0-1.3-.3-1.6-1.2-1.6-.2 0-.4 0-.6.1l-.2.9c0 .7-.4.9-.8.9s-.6-.2-.7-.6c.2-1.1 1.2-1.8 2.8-1.8s2.2.7 2.2 2.4v3.1c0 .5.2.7.4.7s.3-.1.5-.4zm-2.8-2.9c-.4.1-.7.2-.9.3-.9.4-1.3.9-1.3 1.7 0 .7.4 1 1 1 .4 0 .7-.2 1.2-.6z"/><path d="m133.1 41.9c.4-1.2 1.2-1.8 1.9-1.8.5 0 .9.2 1.1.8 0 .5-.3.9-.8.9-.4 0-.6-.2-.9-.6l-.1-.1c-.5.4-.8.9-1.1 1.8v1.1 2.3l1.1.1v.4h-3.6v-.4l.9-.1c0-.7 0-1.7 0-2.3v-.9c0-.8 0-1.2 0-1.8l-.9-.1v-.3l2.3-.7.2.1z"/><path d="m147.9 46.4v.4h-3.2v-.4l.8-.1c0-.7 0-1.7 0-2.3v-1.5c0-1.1-.3-1.5-.9-1.5-.5 0-1 .3-1.6.8v.7 1.5 2.4l.8.1v.4h-3.3v-.4l.9-.1c0-.7 0-1.7 0-2.3v-1.5c0-1.1-.3-1.5-.9-1.5-.5 0-1 .3-1.5.8v2.1 2.4l.8.1v.4h-3.3v-.4l.9-.1c0-.7 0-1.7 0-2.3v-.9c0-.8 0-1.2 0-1.8l-.9-.1v-.3l2.3-.7.2.1.1 1.1c.7-.8 1.4-1.2 2.2-1.2.9 0 1.4.4 1.7 1.2.8-.9 1.5-1.2 2.3-1.2 1.2 0 1.8.7 1.8 2.4v1.4 2.4z"/><path d="m155.2 46.1c-.3.6-.7.8-1.4.8s-1.2-.4-1.3-1.1c-.7.7-1.1 1.1-2 1.1-1 0-1.7-.6-1.7-1.6s.6-1.6 2.4-2.2c.4-.1.8-.3 1.3-.4v-.6c0-1.3-.3-1.6-1.2-1.6-.2 0-.4 0-.6.1l-.2.9c0 .7-.4.9-.8.9s-.6-.2-.7-.6c.2-1.1 1.2-1.8 2.8-1.8s2.2.7 2.2 2.4v3.1c0 .5.2.7.4.7s.3-.1.5-.4zm-2.8-2.9c-.4.1-.7.2-.9.3-.9.4-1.3.9-1.3 1.7 0 .7.4 1 1 1 .4 0 .7-.2 1.2-.6z"/><path d="m159.7 40.6c-.2 0-.3-.1-.5-.1-1.1 0-1.9 1-1.9 2.8 0 1.7.9 2.7 2.2 2.7.7 0 1.3-.3 1.7-.9l.3.1c-.5 1-1.4 1.6-2.6 1.6-1.8 0-3.2-1.2-3.2-3.4s1.6-3.4 3.4-3.4c1.3 0 2.2.8 2.4 1.8-.1.4-.3.6-.7.6-.5 0-.8-.3-.9-.9z"/><path d="m164 43.5c0 1.8 1 2.6 2.1 2.6.9 0 1.4-.4 1.8-.9l.2.2c-.5 1-1.4 1.5-2.6 1.5-1.9 0-3.3-1.2-3.3-3.4s1.6-3.4 3.3-3.4c1.6 0 2.6 1.1 2.6 2.6 0 .3 0 .5-.1.7h-4zm2.1-.4c.6 0 .7-.3.7-.9 0-1-.5-1.6-1.2-1.6-.8 0-1.4.7-1.5 2.5z"/><path d="m176.4 46.4v.4l-2.3.1-.1-1.2c-.6.7-1.4 1.3-2.3 1.3-1.2 0-1.9-.6-1.8-2.4v-3.5l-.9-.2v-.3l2.4-.3.1.1-.1 1.9v2.3c0 1.1.4 1.4 1 1.4.5 0 1-.3 1.5-.7v-4.3l-.9-.2v-.3l2.3-.3.1.1v1.9 4z"/><path d="m181.4 46.1c-.3.5-.9.9-1.7.9-1.1 0-1.7-.5-1.7-1.8 0-.4 0-.7 0-1.2v-3.1h-1v-.4l1.1-.1.5-1.9h1v1.9h1.6v.5h-1.6v4.4c0 .7.3.9.8.9.3 0 .5-.1.9-.4z"/><path d="m185.2 46.4v.4h-3.3v-.4l.9-.1c0-.7 0-1.7 0-2.3v-.9c0-.8 0-1.2 0-1.8l-1-.1v-.3l2.4-.7.2.1v1.9 1.8 2.4zm-2.6-8.5c0-.5.4-.9.9-.9s.9.4.9.9-.4.9-.9.9-.9-.4-.9-.9z"/><path d="m190.1 40.6c-.2 0-.3-.1-.5-.1-1.1 0-1.9 1-1.9 2.8 0 1.7.9 2.7 2.2 2.7.7 0 1.3-.3 1.7-.9l.3.1c-.5 1-1.4 1.6-2.6 1.6-1.8 0-3.2-1.2-3.2-3.4s1.6-3.4 3.4-3.4c1.3 0 2.2.8 2.4 1.8-.1.4-.3.6-.7.6-.5 0-.8-.3-.9-.9z"/><path d="m199.3 46.1c-.3.6-.7.8-1.4.8s-1.2-.4-1.3-1.1c-.7.7-1.1 1.1-2 1.1-1 0-1.7-.6-1.7-1.6s.6-1.6 2.4-2.2c.4-.1.8-.3 1.3-.4v-.6c0-1.3-.3-1.6-1.2-1.6-.2 0-.4 0-.6.1l-.2.9c0 .7-.4.9-.8.9s-.6-.2-.7-.6c.2-1.1 1.2-1.8 2.8-1.8s2.2.7 2.2 2.4v3.1c0 .5.2.7.4.7s.3-.1.5-.4zm-2.8-2.9c-.4.1-.7.2-.9.3-.9.4-1.3.9-1.3 1.7 0 .7.4 1 1 1 .4 0 .7-.2 1.2-.6z"/><path d="m203.1 46.4v.4h-3.5v-.4l.9-.1c0-.8 0-1.6 0-2.3v-6.1l-1-.1v-.3l2.4-.5.2.1v1.9 5 2.4z"/></g></svg>